<svg width="93" height="12" viewBox="0 0 93 12" fill="none" xmlns="http://www.w3.org/2000/svg">
<path d="M0 7.44683H1.65943L1.90629 4.92343H0.32915V3.90863H2.07086L2.38629 1.05603H3.85372L3.52457 3.90863H5.58172L5.91086 1.05603H7.3783L7.0491 3.90863H8.5989V4.92343H6.89829L6.65143 7.44683H8.2971L8.3109 8.46173H6.51429L6.21258 11.2457H4.75886L5.04686 8.46173H2.976L2.67429 11.2457H1.19315L1.50857 8.46173H0V7.44683ZM3.37372 4.92343L3.11315 7.44683H5.14286L5.43086 4.92343H3.37372Z" fill="#03B6D4"/>
<path d="M12.2351 11.3966C11.6682 11.3966 11.1608 11.264 10.7128 10.9988C10.2648 10.7246 9.9082 10.304 9.6431 9.7371C9.3779 9.1703 9.2454 8.4617 9.2454 7.6114C9.2454 6.8434 9.4008 6.144 9.7116 5.5131C10.0316 4.8731 10.4979 4.3657 11.1105 3.9908C11.7231 3.616 12.4591 3.4286 13.3185 3.4286C13.6659 3.4286 13.9951 3.4651 14.3059 3.5383V1.2206L12.9619 1.0286V0.2743L15.7871 0H15.8282L16.2122 0.288002V10.4091H16.9528V11.1908C16.2945 11.328 15.7505 11.3966 15.3208 11.3966C15.0282 11.3966 14.8179 11.3463 14.6899 11.2457C14.5711 11.1543 14.5116 10.9668 14.5116 10.6834V10.2994C14.2739 10.6194 13.9494 10.8846 13.5379 11.0948C13.1265 11.296 12.6922 11.3966 12.2351 11.3966ZM12.9482 10.2583C13.2499 10.2583 13.5151 10.1988 13.7436 10.08C13.9814 9.952 14.1688 9.8011 14.3059 9.6274V4.6354C14.2419 4.544 14.1048 4.4663 13.8945 4.4023C13.6934 4.3383 13.4739 4.3063 13.2362 4.3063C12.6511 4.3063 12.1802 4.5623 11.8236 5.0743C11.4762 5.5771 11.3025 6.3863 11.3025 7.5017C11.3025 8.4343 11.4534 9.1291 11.7551 9.5863C12.0568 10.0343 12.4545 10.2583 12.9482 10.2583ZM17.4736 7.4468C17.4736 6.5874 17.6428 5.856 17.981 5.2526C18.3285 4.6491 18.7902 4.1966 19.3662 3.8948C19.9422 3.584 20.5685 3.4286 21.245 3.4286C22.397 3.4286 23.2839 3.7851 23.9056 4.4983C24.5365 5.2023 24.8519 6.1623 24.8519 7.3783C24.8519 8.2468 24.6782 8.9874 24.3308 9.6C23.9925 10.2034 23.5353 10.656 22.9593 10.9577C22.3925 11.2503 21.7662 11.3966 21.0805 11.3966C19.9376 11.3966 19.0508 11.0446 18.4199 10.3406C17.789 9.6274 17.4736 8.6628 17.4736 7.4468ZM21.1902 10.5051C22.2233 10.5051 22.7399 9.5086 22.7399 7.5154C22.7399 6.4731 22.6165 5.6823 22.3696 5.1428C22.1228 4.5943 21.7205 4.32 21.1628 4.32C20.1022 4.32 19.5719 5.3166 19.5719 7.3097C19.5719 8.352 19.6999 9.1474 19.9559 9.696C20.221 10.2354 20.6325 10.5051 21.1902 10.5051ZM24.8095 3.6343H28.3478V4.416L27.3878 4.5806L28.4026 8.2286L28.7318 9.7234L29.0335 8.2148L30.2678 3.6343H31.9272L33.2849 8.2148L33.614 9.7234L33.9432 8.2286L34.9032 4.5943L33.902 4.416V3.6343H36.8369V4.416L36.1375 4.5668L34.0529 11.3554H32.4758L31.0906 6.912L30.7752 5.28L30.5283 6.912L29.2529 11.3554H27.662L25.4678 4.5668L24.8095 4.416V3.6343ZM37.301 1.2206L36.2588 1.0423V0.301701L38.8096 0H38.8508L39.2073 0.260601L39.221 3.3188L39.125 4.512C39.4085 4.256 39.7925 4.0183 40.277 3.7988C40.7708 3.5794 41.2873 3.4697 41.8268 3.4697C42.4028 3.4697 42.8508 3.5794 43.1708 3.7988C43.4908 4.0091 43.7148 4.3337 43.8428 4.7726C43.9708 5.2114 44.0348 5.7966 44.0348 6.528V10.2994L44.9125 10.4228V11.2457H41.3056V10.4228L42.101 10.2994V6.528C42.101 6.0526 42.069 5.6823 42.005 5.4171C41.941 5.152 41.8222 4.9554 41.6485 4.8274C41.4839 4.6994 41.237 4.6354 40.9079 4.6354C40.6245 4.6354 40.3319 4.704 40.0302 4.8411C39.7376 4.9691 39.477 5.1246 39.2485 5.3074V10.2994L40.085 10.4228V11.2457H36.533V10.4228L37.301 10.3131V1.2206ZM46.996 2.3726C46.6668 2.3726 46.4062 2.2766 46.2142 2.0846C46.0222 1.8926 45.9262 1.6457 45.9262 1.344C45.9262 0.996602 46.036 0.7086 46.2554 0.48C46.4748 0.2514 46.7674 0.1371 47.1331 0.1371C47.4988 0.1371 47.7777 0.237701 47.9697 0.438801C48.1617 0.630801 48.2577 0.873099 48.2577 1.1657C48.2577 1.5314 48.148 1.824 47.9285 2.0434C47.7091 2.2628 47.4028 2.3726 47.0097 2.3726H46.996ZM46.2691 4.9234L45.2954 4.6628V3.744L47.8051 3.4423H47.8325L48.2165 3.7166V10.3131L49.1354 10.4228V11.2457H45.3091V10.4228L46.2691 10.2994V4.9234ZM50.4339 1.2206L49.419 1.0423V0.301701L51.9561 0H51.9836L52.3539 0.260601V10.3131L53.355 10.4228V11.2457H49.4739V10.4228L50.4339 10.2994V1.2206ZM57.2751 11.3966C56.0683 11.3966 55.1677 11.0446 54.5734 10.3406C53.9883 9.6274 53.6957 8.6583 53.6957 7.4331C53.6957 6.6103 53.8466 5.8971 54.1483 5.2937C54.4591 4.6903 54.8934 4.2286 55.4511 3.9086C56.0089 3.5886 56.6534 3.4286 57.3849 3.4286C58.2991 3.4286 59.0031 3.6708 59.4969 4.1554C59.9906 4.6308 60.2466 5.312 60.2649 6.1988C60.2649 6.8023 60.2283 7.2503 60.1551 7.5428H55.698C55.7346 8.3748 55.9311 9.024 56.2877 9.4903C56.6443 9.9474 57.1517 10.176 57.81 10.176C58.1666 10.176 58.5323 10.1166 58.9071 9.9977C59.2911 9.8788 59.5929 9.7371 59.8123 9.5726L60.1551 10.3268C59.9083 10.592 59.506 10.8388 58.9483 11.0674C58.3997 11.2868 57.842 11.3966 57.2751 11.3966ZM58.3449 6.72C58.3631 6.464 58.3723 6.2674 58.3723 6.1303C58.3723 4.9143 57.9654 4.3063 57.1517 4.3063C56.7037 4.3063 56.3563 4.4846 56.1094 4.8411C55.8626 5.1977 55.7254 5.824 55.698 6.72H58.3449ZM60.7833 10.5051C62.0542 9.7554 63.0965 8.928 63.9102 8.0228C64.7239 7.1177 65.1307 6.2446 65.1307 5.4034C65.1307 4.9554 64.989 4.5988 64.7056 4.3337C64.4313 4.0594 64.0427 3.9223 63.5399 3.9223C63.0645 3.9223 62.6622 4.0137 62.333 4.1966C62.013 4.3703 61.6976 4.5988 61.3867 4.8823L60.8656 4.128C61.0485 3.8994 61.309 3.6663 61.6473 3.4286C61.9947 3.1908 62.397 2.9943 62.8542 2.8388C63.3113 2.6743 63.773 2.592 64.2393 2.592C64.9067 2.592 65.4645 2.7063 65.9125 2.9348C66.3696 3.1634 66.7079 3.4651 66.9273 3.84C67.1468 4.2148 67.2565 4.6308 67.2565 5.088C67.2565 5.9657 66.8359 6.848 65.9947 7.7348C65.1536 8.6217 64.0839 9.4354 62.7856 10.176L66.7628 9.8057L67.2839 8.6537L68.1479 8.832L67.7502 11.2457H61.0713L60.7833 10.5051ZM72.4606 11.3828C71.2903 11.3828 70.3943 10.9943 69.7726 10.2171C69.16 9.4308 68.8538 8.3657 68.8538 7.0217C68.8538 6.0708 69.032 5.2663 69.3886 4.608C69.7452 3.9406 70.216 3.4423 70.8012 3.1131C71.3955 2.7748 72.0538 2.6057 72.776 2.6057C73.9555 2.6057 74.8423 2.9806 75.4366 3.7303C76.0309 4.4708 76.328 5.5223 76.328 6.8846C76.328 7.8263 76.1543 8.64 75.8069 9.3257C75.4686 10.0023 75.0069 10.5143 74.4218 10.8617C73.8366 11.2091 73.1829 11.3828 72.4606 11.3828ZM72.5978 10.56C73.1738 10.56 73.5943 10.2674 73.8595 9.6823C74.1338 9.088 74.2709 8.2057 74.2709 7.0354C74.2709 5.792 74.1429 4.8823 73.8869 4.3063C73.64 3.7211 73.2149 3.4286 72.6115 3.4286C71.4778 3.4286 70.9109 4.576 70.9109 6.8708C70.9109 8.096 71.0435 9.0194 71.3086 9.6411C71.5829 10.2537 72.0126 10.56 72.5978 10.56ZM77.1403 10.5051C78.4111 9.7554 79.4534 8.928 80.2671 8.0228C81.0809 7.1177 81.4877 6.2446 81.4877 5.4034C81.4877 4.9554 81.346 4.5988 81.0626 4.3337C80.7883 4.0594 80.3997 3.9223 79.8969 3.9223C79.4214 3.9223 79.0191 4.0137 78.69 4.1966C78.37 4.3703 78.0546 4.5988 77.7437 4.8823L77.2226 4.128C77.4054 3.8994 77.666 3.6663 78.0043 3.4286C78.3517 3.1908 78.754 2.9943 79.2111 2.8388C79.6683 2.6743 80.13 2.592 80.5963 2.592C81.2637 2.592 81.8214 2.7063 82.2694 2.9348C82.7266 3.1634 83.0649 3.4651 83.2843 3.84C83.5037 4.2148 83.6134 4.6308 83.6134 5.088C83.6134 5.9657 83.1929 6.848 82.3517 7.7348C81.5106 8.6217 80.4409 9.4354 79.1426 10.176L83.1197 9.8057L83.6409 8.6537L84.5049 8.832L84.1071 11.2457H77.4283L77.1403 10.5051ZM88.8176 11.3828C87.6473 11.3828 86.7513 10.9943 86.1296 10.2171C85.517 9.4308 85.2107 8.3657 85.2107 7.0217C85.2107 6.0708 85.389 5.2663 85.7456 4.608C86.1021 3.9406 86.573 3.4423 87.1581 3.1131C87.7524 2.7748 88.4107 2.6057 89.133 2.6057C90.3124 2.6057 91.1993 2.9806 91.7936 3.7303C92.3879 4.4708 92.685 5.5223 92.685 6.8846C92.685 7.8263 92.5113 8.64 92.1639 9.3257C91.8256 10.0023 91.3639 10.5143 90.7787 10.8617C90.1936 11.2091 89.5399 11.3828 88.8176 11.3828ZM88.9547 10.56C89.5307 10.56 89.9513 10.2674 90.2164 9.6823C90.4907 9.088 90.6279 8.2057 90.6279 7.0354C90.6279 5.792 90.4999 4.8823 90.2439 4.3063C89.997 3.7211 89.5719 3.4286 88.9684 3.4286C87.8347 3.4286 87.2679 4.576 87.2679 6.8708C87.2679 8.096 87.4004 9.0194 87.6656 9.6411C87.9399 10.2537 88.3696 10.56 88.9547 10.56Z" fill="black"/>
</svg>
